<svg viewBox="0 0 500 500" xmlns="http://www.w3.org/2000/svg" xmlns:xlink="http://www.w3.org/1999/xlink" overflow="hidden"><g id="freepik--background-simple--inject-2"><path d="M467.6 251.91C462.67 293.71 443.6 342.32 405.46 364.64 347.87 398.39 352.69 450.28 240.27 472.84 223.876 476.209 207.165 477.788 190.43 477.55 182.239 477.399 174.066 476.731 165.96 475.55 94.51 465.12 46.43 415.46 28.79 355.5 5.58 276.66 51.93 225 82.65 193.94 113.37 162.88 135.88 65.94 246.22 42.94 263.05 39.3283 280.24 37.6706 297.45 38 336.71 39 379.53 51.86 409.16 78.76 411.38 80.76 413.547 82.8533 415.66 85.04 456.84 127.33 474.34 194.92 467.6 251.91Z" fill="#33CCCC"/><path d="M467.6 251.91C462.67 293.71 443.6 342.32 405.46 364.64 347.87 398.39 352.69 450.28 240.27 472.84 223.876 476.209 207.165 477.788 190.43 477.55 182.239 477.399 174.066 476.731 165.96 475.55 94.51 465.12 46.43 415.46 28.79 355.5 5.58 276.66 51.93 225 82.65 193.94 113.37 162.88 135.88 65.94 246.22 42.94 263.05 39.3283 280.24 37.6706 297.45 38 336.71 39 379.53 51.86 409.16 78.76 411.38 80.76 413.547 82.8533 415.66 85.04 456.84 127.33 474.34 194.92 467.6 251.91Z" fill="#FFFFFF" opacity="0.7"/></g><g id="freepik--Tools--inject-2"><path d="M78.8 131 114.93 94.9C124.214 99.0991 135.145 94.9768 139.344 85.6926 140.991 82.0503 141.411 77.9715 140.54 74.07L126.16 88.44C125.732 88.8708 125.035 88.8727 124.604 88.4444 124.603 88.4429 124.601 88.4415 124.6 88.44L112.14 76C111.709 75.5716 111.707 74.8752 112.136 74.4444 112.137 74.4429 112.139 74.4415 112.14 74.44L126.52 60.07C116.575 57.8501 106.714 64.1125 104.494 74.0574 103.623 77.9589 104.043 82.0377 105.69 85.68L69.56 121.78C60.262 117.612 49.3453 121.77 45.1768 131.068 43.5536 134.689 43.1409 138.736 44 142.61L58.38 128.24C58.8033 127.812 59.4935 127.808 59.9215 128.231 59.9243 128.234 59.9272 128.237 59.93 128.24L72.35 140.7C72.7808 141.128 72.7827 141.825 72.3544 142.256 72.3529 142.257 72.3515 142.259 72.35 142.26L58 156.63C67.94 158.847 77.7948 152.586 80.0115 142.646 80.8835 138.735 80.4582 134.647 78.8 131Z" stroke="#000000" stroke-linecap="round" stroke-linejoin="round" fill="none" opacity="0.3"/><path d="M150.57 50.28 139.57 46.67 130.94 54.39 133.32 65.73 144.32 69.33 153 61.61ZM142.89 62.49 138.53 61.06 137.59 56.57 141.01 53.57 145.36 54.99 146.3 59.48Z" stroke="#000000" stroke-linecap="round" stroke-linejoin="round" fill="none" opacity="0.3"/><path d="M397.78 294.38 361.65 330.51C352.377 326.286 341.436 330.38 337.212 339.653 335.545 343.312 335.12 347.416 336 351.34L350.42 337C350.848 336.569 351.545 336.567 351.976 336.996 351.977 336.997 351.979 336.999 351.98 337L364.44 349.47C364.868 349.893 364.872 350.583 364.449 351.011 364.446 351.014 364.443 351.017 364.44 351.02L350.06 365.4C360.005 367.62 369.866 361.358 372.086 351.413 372.957 347.511 372.537 343.432 370.89 339.79L407 303.62C416.284 307.819 427.215 303.697 431.414 294.413 433.061 290.77 433.481 286.691 432.61 282.79L418.23 297.17C417.802 297.601 417.105 297.603 416.674 297.174 416.673 297.173 416.671 297.171 416.67 297.17L404.21 284.71C403.779 284.282 403.777 283.585 404.206 283.154 404.207 283.153 404.209 283.151 404.21 283.15L418.59 268.77C408.645 266.55 398.784 272.812 396.564 282.757 395.693 286.659 396.113 290.738 397.76 294.38Z" stroke="#000000" stroke-linecap="round" stroke-linejoin="round" fill="none" opacity="0.3"/><path d="M326 375.13 337 378.74 345.62 371.01 343.25 359.68 332.25 356.07 323.62 363.8ZM333.68 362.92 338.04 364.35 338.98 368.83 335.56 371.89 331.21 370.46 330.27 365.98Z" stroke="#000000" stroke-linecap="round" stroke-linejoin="round" fill="none" opacity="0.3"/><path d="M378.25 131 414.38 94.9C423.661 99.1053 434.595 94.9902 438.8 85.7088 440.452 82.0621 440.873 77.9771 440 74.07L425.61 88.44C425.187 88.868 424.497 88.8718 424.069 88.4485 424.066 88.4457 424.063 88.4429 424.06 88.44L411.59 76C411.159 75.5716 411.157 74.8752 411.586 74.4444 411.587 74.4429 411.589 74.4415 411.59 74.44L426 60.05C416.055 57.8301 406.194 64.0925 403.974 74.0374 403.103 77.9389 403.523 82.0177 405.17 85.66L369 121.78C359.716 117.581 348.785 121.703 344.586 130.987 342.939 134.63 342.519 138.709 343.39 142.61L357.77 128.24C358.198 127.809 358.895 127.807 359.326 128.236 359.327 128.237 359.329 128.239 359.33 128.24L371.8 140.7C372.231 141.128 372.233 141.825 371.804 142.256 371.803 142.257 371.801 142.259 371.8 142.26L357.42 156.63C367.356 158.865 377.222 152.622 379.457 142.687 380.34 138.764 379.916 134.66 378.25 131Z" stroke="#000000" stroke-linecap="round" stroke-linejoin="round" fill="none" opacity="0.3"/><path d="M450 50.28 439 46.67 430.38 54.39 432.75 65.73 443.75 69.33 452.37 61.61ZM442.32 62.49 438 61.06 437 56.57 440.42 53.57 444.77 54.99 445.71 59.48Z" stroke="#000000" stroke-linecap="round" stroke-linejoin="round" fill="none" opacity="0.3"/><path d="M469.88 133.68 458.88 130.08 450.25 137.8 452.63 149.13 463.63 152.74 472.26 145.01ZM462.2 145.89 457.84 144.47 456.9 140 460.32 136.94 464.67 138.37 465.61 142.86Z" stroke="#000000" stroke-linecap="round" stroke-linejoin="round" fill="none" opacity="0.3"/><path d="M219.67 82.6 208.67 78.99 200.05 86.72 202.42 98.05 213.42 101.66 222.04 93.93ZM212 94.81 207.64 93.38 206.7 88.9 210.12 85.84 214.47 87.27 215.41 91.75Z" stroke="#000000" stroke-linecap="round" stroke-linejoin="round" fill="none" opacity="0.3"/><path d="M199.82 342.75 188.82 339.14 180.2 346.86 182.58 358.19 193.58 361.8 202.2 354.08ZM192.13 355 187.78 353.57 186.84 349.08 190.25 346.02 194.6 347.45 195.6 351.94Z" stroke="#000000" stroke-linecap="round" stroke-linejoin="round" fill="none" opacity="0.3"/><path d="M60.15 202.41 49.15 198.81 40.53 206.53 42.9 217.86 53.9 221.47 62.52 213.74ZM52.46 214.62 48.11 213.2 47.11 208.71 50.53 205.65 54.88 207.08 55.88 211.57Z" stroke="#000000" stroke-linecap="round" stroke-linejoin="round" fill="none" opacity="0.3"/><path d="M138.63 352.69 174.75 316.56C184.025 320.767 194.954 316.659 199.16 307.384 200.817 303.733 201.238 299.642 200.36 295.73L186 310.11C185.572 310.541 184.875 310.543 184.444 310.114 184.443 310.113 184.441 310.111 184.44 310.11L172 297.65C171.569 297.222 171.567 296.525 171.996 296.094 171.997 296.093 171.999 296.091 172 296.09L186.37 281.71C176.425 279.49 166.564 285.752 164.344 295.697 163.473 299.599 163.893 303.678 165.54 307.32L129.42 343.45C120.136 339.251 109.205 343.373 105.006 352.657 103.359 356.3 102.939 360.379 103.81 364.28L118.18 349.9C118.608 349.469 119.305 349.467 119.736 349.896 119.737 349.897 119.739 349.899 119.74 349.9L132.2 362.36C132.631 362.788 132.633 363.485 132.204 363.916 132.203 363.917 132.201 363.919 132.2 363.92L117.8 378.3C127.745 380.52 137.606 374.258 139.826 364.313 140.697 360.411 140.277 356.332 138.63 352.69Z" stroke="#000000" stroke-linecap="round" stroke-linejoin="round" fill="none" opacity="0.3"/><path d="M210.4 271.94 199.4 268.33 190.77 276.06 193.15 287.39 204.15 291 212.78 283.27ZM202.72 284.15 198.36 282.72 197.42 278.24 200.83 275.18 205.19 276.61 206.13 281.09Z" stroke="#000000" stroke-linecap="round" stroke-linejoin="round" fill="none" opacity="0.3"/></g><g id="freepik--Device--inject-2"><rect x="232" y="295.89" width="27.63" height="111.46" stroke="#263238" stroke-linecap="round" stroke-linejoin="round" fill="#263238"/><rect x="78.51" y="112.03" width="348.66" height="211.48" stroke="#263238" stroke-linecap="round" stroke-linejoin="round" fill="#263238"/><rect x="71.49" y="112.03" width="348.66" height="211.48" stroke="#263238" stroke-linecap="round" stroke-linejoin="round" fill="#33CCCC"/><rect x="84.05" y="119.65" width="323.53" height="196.24" stroke="#263238" stroke-linecap="round" stroke-linejoin="round" fill="#FFFFFF"/><rect x="84.05" y="304.07" width="323.53" height="11.82" stroke="#263238" stroke-linecap="round" stroke-linejoin="round" fill="#FFFFFF"/><path d="M247.33 394.84 144.9 401.46 144.9 408.13 346.74 408.13 346.74 401.46 247.33 394.84Z" stroke="#263238" stroke-linecap="round" stroke-linejoin="round" fill="#263238"/><rect x="84.05" y="119.65" width="323.53" height="196.24" stroke="#263238" stroke-linecap="round" stroke-linejoin="round" fill="#FFFFFF"/></g><g id="freepik--Floor--inject-2"><line x1="462.87" y1="406.3" x2="21.94" y2="406.3" stroke="#263238" stroke-linecap="round" stroke-linejoin="round" fill="none"/><line x1="485.77" y1="406.3" x2="473.9" y2="406.3" stroke="#263238" stroke-linecap="round" stroke-linejoin="round" fill="none"/></g><g id="freepik--Screws--inject-2"><path d="M215.48 174.83C215.48 171.03 212.4 167.95 208.6 167.95 204.8 167.95 201.72 171.03 201.72 174.83 201.72 178.63 204.8 181.71 208.6 181.71 212.4 181.71 215.48 178.63 215.48 174.83Z" stroke="#263238" stroke-linecap="round" stroke-linejoin="round" fill="#FFFFFF"/><line x1="213.56" y1="169.9" x2="204.16" y2="179.3" stroke="#263238" stroke-linecap="round" stroke-linejoin="round" fill="#FFFFFF"/><path d="M279.33 247.37C279.33 243.57 276.25 240.49 272.45 240.49 268.65 240.49 265.57 243.57 265.57 247.37 265.57 251.17 268.65 254.25 272.45 254.25 276.25 254.25 279.33 251.17 279.33 247.37Z" stroke="#263238" stroke-linecap="round" stroke-linejoin="round" fill="#263238"/><path d="M336.88 174.83C336.88 171.03 333.8 167.95 330 167.95 326.2 167.95 323.12 171.03 323.12 174.83 323.12 178.63 326.2 181.71 330 181.71 333.8 181.71 336.88 178.63 336.88 174.83Z" stroke="#263238" stroke-linecap="round" stroke-linejoin="round" fill="#FFFFFF"/><line x1="334.96" y1="169.9" x2="325.56" y2="179.3" stroke="#263238" stroke-linecap="round" stroke-linejoin="round" fill="#FFFFFF"/><path d="M243.63 409.82 219.63 418.16C218.82 418.441 218.316 419.249 218.42 420.1L218.42 420.1C218.54 421.059 219.385 421.76 220.35 421.7L245 420.23Z" stroke="#263238" stroke-linecap="round" stroke-linejoin="round" fill="#FFFFFF"/><line x1="220.39" y1="421.7" x2="224.34" y2="416.85" stroke="#263238" stroke-linecap="round" stroke-linejoin="round" fill="none"/><line x1="224.88" y1="421.35" x2="230.07" y2="415.03" stroke="#263238" stroke-linecap="round" stroke-linejoin="round" fill="none"/><line x1="229.39" y1="421.23" x2="236.52" y2="412.48" stroke="#263238" stroke-linecap="round" stroke-linejoin="round" fill="none"/><line x1="234.12" y1="420.97" x2="242.57" y2="410.62" stroke="#263238" stroke-linecap="round" stroke-linejoin="round" fill="none"/><path d="M251.83 414.46C251.371 410.688 247.942 408.002 244.17 408.46 240.398 408.919 237.712 412.348 238.171 416.12 238.629 419.892 242.058 422.578 245.83 422.12 249.602 421.662 252.288 418.232 251.83 414.46 251.83 414.46 251.83 414.46 251.83 414.46Z" stroke="#263238" stroke-linecap="round" stroke-linejoin="round" fill="#FFFFFF"/><line x1="249.33" y1="409.79" x2="241.13" y2="420.25" stroke="#263238" stroke-linecap="round" stroke-linejoin="round" fill="#FFFFFF"/></g><g id="freepik--gear-2--inject-2"><path d="M368.47 408.46 366.08 411.46C365.8 411.28 365.52 411.1 365.2 410.93 364.097 410.315 362.954 409.774 361.78 409.31L367.78 407.53 370.1 406.99 370.1 406.84 370.15 406.84 370.1 406.84 370.1 400.25 358.66 402.44 360.66 404.13 359.76 403.87 351.38 406.36C347.86 405.64 349.11 402.83 345.07 402.44L341.69 401.23 327.3 400.59 324.89 400.65C319.89 397.77 315.29 397.43 313.06 404.65L307.5 401.54 300.72 402.54 304.55 399.64 294.63 396.7 294.63 403.47 287 404.72 274.16 404.72 274.16 411.49 284.93 413.07C284.556 413.423 284.221 413.816 283.93 414.24L273.75 414.73 271.29 410.53 271.29 417.3 273.75 421.49 283.16 421.04 283.16 426.71 293.56 429.71 302 427.2C305.765 427.951 309.567 428.505 313.39 428.86L311.69 432.33 326.08 432.97 327.8 429.5C331.99 429.5 336.21 429.29 340.33 428.9L345.89 432.01 358.75 430.06 357.75 425.76C359.29 425.3 360.75 424.82 361.98 424.3L372.7 425.88 379.14 422.08 379.14 416.4 381.98 416.27 381.98 409.5ZM297.93 405.36 300.18 406.62C298.77 406.93 297.45 407.27 296.18 407.62ZM343.54 423.36 343.54 419.93 339.67 420.04 339.67 419.54 335.58 420.17C328.02 420.39 317.74 420.7 317.38 420.7L316.53 422.43C310.46 422.75 305.17 422.37 301.91 420.54 294.72 416.54 299.97 411.6 313.65 409.54 327.33 407.48 344.23 409.06 351.42 413.07 357.88 416.65 354.27 421 343.54 423.34ZM376 417.21 372 416.75 377.23 416.5Z" stroke="#263238" stroke-linecap="round" stroke-linejoin="round" fill="#263238"/><path d="M341.66 394.47 338.37 399.51 341.66 398.7 341.66 394.47Z" stroke="#263238" stroke-linecap="round" stroke-linejoin="round" fill="#263238"/><path d="M339.67 417.28C326 419.35 309.09 417.77 301.91 413.76 294.73 409.75 299.97 404.81 313.65 402.76 327.33 400.71 344.23 402.27 351.42 406.28 358.61 410.29 353.35 415.22 339.67 417.28M307.47 394.78 294.6 396.78 300.18 399.9C297.16 400.538 294.197 401.421 291.32 402.54L280.6 400.97 274.16 404.76 284.93 406.34C283.843 407.259 283.187 408.588 283.12 410.01L271.32 410.57 273.78 414.77 285.61 414.2C286.393 414.839 287.233 415.405 288.12 415.89 289.223 416.501 290.366 417.039 291.54 417.5L283.19 419.98 293.59 422.98 301.97 420.49C305.743 421.237 309.551 421.791 313.38 422.15L311.66 425.61 326.05 426.25 327.77 422.79C331.96 422.79 336.18 422.57 340.3 422.18L345.86 425.29 358.72 423.35 353.14 420.23C356.159 419.588 359.122 418.705 362 417.59L372.72 419.16 379.16 415.37 368.39 413.79C369.476 412.871 370.132 411.541 370.2 410.12L382 409.55 379.54 405.36 367.71 405.92C366.926 405.285 366.086 404.722 365.2 404.24 364.095 403.63 362.953 403.088 361.78 402.62L370.14 400.14 359.73 397.14 351.35 399.63C347.578 398.878 343.77 398.324 339.94 397.97L341.66 394.51 327.27 393.86 325.55 397.33C321.36 397.33 317.14 397.55 313.03 397.93L307.47 394.82" stroke="#263238" stroke-linecap="round" stroke-linejoin="round" fill="#BDBDBD"/></g><g id="freepik--gears-1--inject-2"><path d="M246.75 244.13C246.747 242.38 246.617 240.632 246.36 238.9L255.58 235.9 256.84 232.9 254.84 233.49 251.99 224.71 242.74 227.71C241.13 224.66 239.085 221.861 236.67 219.4L242.37 211.55 243.63 208.55 241.63 211.01 232.86 204.64 227.14 212.51C224.047 210.979 220.745 209.914 217.34 209.35L217.34 199.65 207.5 199.65 206.74 196.65 205.49 199.65 205.49 209.38C202.087 209.958 198.788 211.036 195.7 212.58L190 204.7 183.59 209.36 181.72 208.61 181.52 209.1 180.46 211.63 186.19 219.5C183.794 221.973 181.773 224.783 180.19 227.84L174 225.84 172.22 221.84 170.96 224.84 167.32 236.04 176.57 239.04C176.325 240.719 176.201 242.413 176.2 244.11 176.203 245.86 176.333 247.608 176.59 249.34L171.59 250.97 168.65 249.32 167.4 252.32 171 263.56 180.25 260.56C181.861 263.615 183.909 266.418 186.33 268.88L182.78 273.75 181.88 273.75 180.62 276.75 190.15 283.68 195.87 275.81C198.965 277.336 202.267 278.4 205.67 278.97L205.67 288.67 217.45 288.67 218.71 285.67 217.45 285.67 217.45 278.95C220.853 278.373 224.153 277.294 227.24 275.75L232.94 283.59 242.48 276.67 243.73 273.67 241.18 274.9 236.76 268.81C239.155 266.337 241.177 263.527 242.76 260.47L251.99 263.47 255.63 252.27 246.38 249.27C246.628 247.568 246.752 245.85 246.75 244.13ZM211.46 266.8C198.94 266.806 188.786 256.66 188.78 244.14 188.774 231.62 198.92 221.466 211.44 221.46 223.96 221.454 234.114 231.6 234.12 244.12 234.12 244.123 234.12 244.127 234.12 244.13 234.12 256.646 223.976 266.794 211.46 266.8Z" stroke="#263238" stroke-linecap="round" stroke-linejoin="round" fill="#263238"/><path d="M253.25 260.4 256.89 249.19 247.64 246.19C247.877 244.507 247.997 242.81 248 241.11 248 239.363 247.873 237.618 247.62 235.89L256.84 232.89 253.2 221.68 243.95 224.68C242.339 221.625 240.291 218.822 237.87 216.36L243.58 208.51 234 201.6 228.29 209.46C225.193 207.933 221.887 206.872 218.48 206.31L218.48 196.61 206.74 196.61 206.74 206.34C203.337 206.918 200.038 207.996 196.95 209.54L191.25 201.69 181.72 208.61 187.44 216.49C185.047 218.965 183.026 221.775 181.44 224.83L172.22 221.83 168.54 233 177.79 236C177.545 237.679 177.422 239.373 177.42 241.07 177.418 242.821 177.548 244.569 177.81 246.3L168.58 249.3 172.23 260.51 181.48 257.51C183.081 260.565 185.127 263.365 187.55 265.82L181.85 273.68 191.38 280.6 197.1 272.73C200.191 274.266 203.494 275.331 206.9 275.89L206.9 285.59 218.68 285.59 218.68 275.86C222.083 275.282 225.382 274.204 228.47 272.66L234.17 280.51 243.7 273.58 238 265.74C240.396 263.267 242.417 260.457 244 257.4ZM190.05 241.11C190.05 228.59 200.2 218.44 212.72 218.44 225.24 218.44 235.39 228.59 235.39 241.11 235.39 253.63 225.24 263.78 212.72 263.78 212.717 263.78 212.713 263.78 212.71 263.78 200.195 263.78 190.05 253.635 190.05 241.12 190.05 241.117 190.05 241.113 190.05 241.11Z" stroke="#263238" stroke-linecap="round" stroke-linejoin="round" fill="#BDBDBD"/><path d="M308.17 181.45C308.172 179.699 308.042 177.951 307.78 176.22L317.01 173.22 318.26 170.22 316.26 170.81 313.37 162 304.12 165C302.507 161.95 300.459 159.151 298.04 156.69L303.75 148.84 305 145.84 303 148.3 294.23 141.93 288.52 149.8C285.423 148.27 282.118 147.205 278.71 146.64L278.71 136.94 268.94 136.94 268.19 133.94 266.93 136.94 266.93 146.67C263.527 147.248 260.228 148.326 257.14 149.87L251.44 142.02 245 146.68 243.14 145.94 242.93 146.42 241.89 149 247.61 156.87C245.212 159.345 243.19 162.158 241.61 165.22L235.42 163.22 233.64 159.22 232.39 162.22 228.75 173.42 238 176.42C237.755 178.099 237.632 179.793 237.63 181.49 237.628 183.241 237.758 184.989 238.02 186.72L233.02 188.35 230 186.66 228.74 189.66 232.38 200.86 241.64 197.86C243.246 200.912 245.291 203.712 247.71 206.17L244.17 211.05 243.26 211.05 242 214 251.53 220.93 257.24 213.06C260.337 214.59 263.642 215.655 267.05 216.22L267.05 226 278.83 226 280.09 223 278.83 223 278.83 216.28C282.233 215.702 285.532 214.624 288.62 213.08L294.32 220.93 303.85 214 305.11 211 302.55 212.22 298.13 206.14C300.528 203.665 302.55 200.852 304.13 197.79L313.36 200.79 317 189.59 307.74 186.59C308.008 184.889 308.152 183.172 308.17 181.45ZM272.88 204.12C260.36 204.12 250.21 193.97 250.21 181.45 250.21 168.93 260.36 158.78 272.88 158.78 285.4 158.78 295.55 168.93 295.55 181.45 295.55 193.97 285.4 204.12 272.88 204.12Z" stroke="#263238" stroke-linecap="round" stroke-linejoin="round" fill="#263238"/><path d="M314.67 197.72 318.31 186.51 309.06 183.51C309.305 181.831 309.428 180.137 309.43 178.44 309.427 176.689 309.297 174.942 309.04 173.21L318.26 170.21 314.62 159 305.37 162C303.769 158.945 301.723 156.145 299.3 153.69L305 145.83 295.47 138.91 289.75 146.78C286.659 145.245 283.356 144.18 279.95 143.62L279.95 133.92 268.17 133.92 268.17 143.65C264.767 144.228 261.468 145.306 258.38 146.85L252.68 139 243.15 145.93 248.87 153.8C246.474 156.273 244.453 159.083 242.87 162.14L233.64 159.14 230 170.36 239.25 173.36C239.005 175.042 238.881 176.74 238.88 178.44 238.883 180.187 239.013 181.932 239.27 183.66L230.05 186.66 233.69 197.87 242.94 194.87C244.551 197.925 246.599 200.728 249.02 203.19L243.27 211 252.8 218 258.52 210.14C261.614 211.665 264.916 212.727 268.32 213.29L268.32 222.99 280.11 222.99 280.11 213.27C283.511 212.689 286.807 211.608 289.89 210.06L295.6 217.91 305.13 210.99 299.41 203.11C301.803 200.635 303.824 197.826 305.41 194.77ZM251.47 178.44C251.464 165.92 261.61 155.766 274.13 155.76 286.65 155.754 296.804 165.9 296.81 178.42 296.816 190.94 286.67 201.094 274.15 201.1 274.147 201.1 274.143 201.1 274.14 201.1 261.624 201.1 251.476 190.956 251.47 178.44Z" stroke="#263238" stroke-linecap="round" stroke-linejoin="round" fill="#BDBDBD"/><path d="M296.23 256.29 296.32 256.29 297.83 254.92 296.23 256.29Z" opacity="0.2"/><path d="M294.52 261 294.04 261.25C294.06 261.38 294.15 261.39 294.52 261Z" opacity="0.2"/><path d="M295.35 259.27C295.49 259.09 294.35 260.27 293.97 260.75 294.35 260.57 295.43 259.56 295.35 259.27Z" opacity="0.2"/><path d="M292.75 263.56 296.98 262.19C297.3 261.87 297.47 261.59 297.24 261.43 296.52 262.43 296.61 261.79 296.09 262.16L296.09 262.25C295.96 262.34 295.57 262.61 295.72 262.34 296.748 261.746 297.73 261.078 298.66 260.34 298.24 260.56 298.78 259.73 298.8 259.58 299.6 258.93 299.01 259.77 299.1 259.96 299.5 259.59 300.38 259.23 300.45 258.67 300.79 257.93 299.57 259.12 299.22 259.12L301.7 257.29 301.58 257.29C301.905 257.158 302.184 256.931 302.38 256.64 302.43 256.27 301.89 256.73 301.61 257.1 302.5 255.72 304.13 255.65 304.61 254.19L304.23 254.43C304.37 254.24 304.5 254.16 304.62 254.16 304.74 254.16 304.62 254.16 304.62 254.16L305.39 253.68C305.39 253.58 305.39 253.39 305.3 253.48L306.07 253.03C307.38 252.03 306.07 252.37 306.35 251.91L306.29 251.97C306.59 251.56 306.71 251.14 306.42 251.35L307.85 250.35 307.85 250.35C307.69 250.35 307.56 250.35 307.53 250.25L307.85 250.35C308.62 250.17 310.47 248.46 310.98 249.01 311.03 248.946 311.077 248.879 311.12 248.81 311.12 248.71 311.07 248.6 311.05 248.49 310.931 248.616 310.796 248.727 310.65 248.82L311.05 248.49C310.825 247.322 310.691 246.139 310.65 244.95 310.32 245.22 310.08 245.46 310.07 245.64L310.21 245.56 310.16 245.84C310.093 245.797 310.058 245.719 310.07 245.64 309.12 246.21 308.43 247.15 307.68 247.64L307.88 247.92C307.446 248.171 307.049 248.48 306.7 248.84 306.7 248.84 306.81 248.84 306.91 248.84L307.46 248.41C307.321 248.602 307.13 248.751 306.91 248.84 305.68 249.825 304.508 250.88 303.4 252 303.62 252.1 303.72 252.2 304.4 251.65 303.65 252.85 301.51 253.93 300.12 255.5L300.34 255.5 299.34 256.13C299.59 256.04 299.56 256.23 299.67 256.33 298.29 257.8 296.52 259.55 295.31 259.81 295.82 259.53 294.95 260.74 295.97 260.1 294.764 260.936 293.636 261.88 292.6 262.92ZM300.58 257.65 301.51 256.92 300.56 257.84ZM298.17 259.86 297.35 260.68 296.84 260.95Z" opacity="0.2"/><path d="M294 261.29C294 261.1 294.26 260.58 293.6 261.49Z" opacity="0.2"/><path d="M294.09 258.22 295.75 257.22 295.13 257.49 296.13 256.76C295.83 256.66 294.69 257.29 294.09 258.22Z" opacity="0.2"/><path d="M295 258.14C294.813 258.237 294.641 258.362 294.49 258.51 294.647 258.37 294.818 258.246 295 258.14Z" opacity="0.2"/><path d="M295 258.14C295.21 258.08 294.94 258.53 295.6 258.07 295.59 257.88 295.32 258 295 258.14Z" opacity="0.2"/><path d="M328.6 283.44 329.11 282.66C328.37 282.62 328.71 283.05 328.6 283.44Z" opacity="0.2"/><path d="M296.69 256.31 296.32 256.29 296.22 256.38 296.69 256.31Z" opacity="0.2"/><path d="M337.19 218.46C337.6 218.29 338.24 218.27 338.46 217.46 337.69 217.52 337.85 218.09 337.19 218.46Z" opacity="0.2"/><path d="M328.44 283.7C328.52 283.633 328.576 283.542 328.6 283.44Z" opacity="0.2"/><path d="M342.53 210.1 342.37 210.1C342.22 210.37 342.15 210.59 342.23 210.62 342.286 210.425 342.389 210.246 342.53 210.1Z" opacity="0.2"/><path d="M338.29 221 338.05 221C339.48 220 340.59 217.95 341.83 216.58 341.83 216.76 340.75 217.67 341.19 217.87L342.93 216.31C342.93 216.13 343.64 215.39 343.02 215.66 342.8 215.842 342.611 216.058 342.46 216.3L342.51 215.93C344.23 214.56 342.9 216.5 343.22 216.78 343.93 215.86 344.52 215.87 345.07 215.32 345.02 214.76 343.67 216.05 344.07 215.02 344.862 214.019 345.894 213.235 347.07 212.74 347.107 212.421 347.22 212.116 347.4 211.85 346.95 211.65 346.49 211.46 346.03 211.28 343.49 213.62 340.56 215.22 338.59 218.33L338.7 218.33 336.51 219.79C336.22 220.16 336.41 220.54 335.96 221.18 335.96 220.88 335.62 221.18 335.23 221.58 335.97 221.65 336.69 221.75 337.4 221.88 337.63 221.526 337.934 221.226 338.29 221Z" opacity="0.2"/><path d="M299.68 254.3C299.96 253.93 299.62 253.83 300.39 253.37 300.47 253.66 301.14 253.86 301.88 252.84 301.067 253.017 300.298 253.357 299.62 253.84Z" opacity="0.2"/><path d="M301.81 253.45 302.81 252.2C301.8 252.41 302.1 252.89 301.81 253.45Z" opacity="0.2"/><path d="M301.81 253.45 301.5 253.86C301.629 253.745 301.734 253.605 301.81 253.45Z" opacity="0.2"/><path d="M310.82 240.73 310.83 240.73 310.83 240.72 310.82 240.73Z" opacity="0.2"/><path d="M361.23 222.67 361.02 222.41C360.87 222.54 360.72 222.68 360.56 222.84 360.58 223.08 360.93 222.88 361.23 222.67Z" opacity="0.2"/><path d="M350.41 259.13C350.78 258.55 351.24 258.68 351.56 258.36 351.47 258.1 351.19 258.22 350.97 258.24 350.76 258.5 350.56 258.75 350.34 259 350.349 259.05 350.374 259.095 350.41 259.13Z" opacity="0.2"/><path d="M351.52 258.07C351.52 257.86 351.89 257.5 352.19 257.07 351.73 257 351.32 258 351.52 258.07Z" opacity="0.2"/><path d="M345.67 265.93C345.34 266.11 344.52 266.01 344.26 266.76L344.76 266.5 344.69 266.61 344.97 266.69C344.38 266.32 345.43 266.14 345.67 265.93Z" opacity="0.2"/><path d="M354.13 231.16 353.68 231.81 354.08 231.44 354.13 231.16Z" opacity="0.2"/><path d="M311.65 251C311.299 251.361 310.921 251.696 310.52 252L310.71 252.29C310.277 252.539 309.881 252.845 309.53 253.2 309.597 253.23 309.673 253.23 309.74 253.2L310.3 252.76C310.157 252.955 309.963 253.107 309.74 253.2 308.53 254.179 307.375 255.224 306.28 256.33 306.5 256.43 306.61 256.53 307.28 255.98 306.53 257.18 304.38 258.26 302.99 259.83L303.22 259.83 302.22 260.46C302.47 260.38 302.44 260.57 302.54 260.66L302.27 260.94C303.841 263.832 305.806 266.49 308.11 268.84L302.41 276.69 311.94 283.62 317.65 275.75C320.749 277.276 324.053 278.34 327.46 278.91L327.46 281.2C327.663 281.05 327.782 280.812 327.78 280.56L327.53 280.67C327.61 280.55 327.69 280.51 327.78 280.53 327.87 280.55 327.78 280.53 327.78 280.53L328.29 280.31C328.29 280.23 328.29 280.09 328.18 280.13L328.69 279.94C329.52 279.42 328.53 279.41 328.69 279.11L328.69 279.11C328.84 278.85 328.85 278.55 328.69 278.65L329.61 278.16 329.61 278.16C329.5 278.162 329.397 278.104 329.34 278.01L329.61 278.16C330.18 278.16 331.29 277.21 331.81 277.75 331.95 277.52 332.01 277.28 331.81 277.28L331.81 277.28C331.728 277.375 331.625 277.45 331.51 277.5L331.81 277.28 331.81 277.28 331.81 277.28C332.37 276.79 331.28 276.99 332.2 276.23 332.1 276.13 332.03 276.23 331.86 276.34 332.07 276.11 332.19 276.05 332.29 276.07 332.216 275.997 332.167 275.903 332.15 275.8 332.35 276 332.66 275.6 332.8 275.37L332.17 275.37C332.518 275.353 332.833 275.156 333 274.85L332.55 274.85C333.2 274.35 333.05 275.27 333.55 274.39L333.13 275.23C333.93 274.57 334.13 275.23 334.63 275.1 335.74 274.67 336.07 273.1 337.33 273.2 337.2 272.89 337.03 272.91 337.06 272.51 336.664 272.871 336.132 273.042 335.6 272.98 334.34 273.59 336.19 274.04 334.65 274.56 334.43 274.23 334.74 273.9 335.17 273.75 334.95 273.48 334.44 273.68 334.1 273.75 334.82 273.29 335.37 272.14 335.77 271.75L335.72 271.75 335.81 271.75 335.81 271.75C336.233 271.673 336.617 271.454 336.9 271.13 336.9 271.13 336.9 271.04 336.9 270.93 336.94 270.991 336.94 271.069 336.9 271.13 337.05 271.35 338.11 270.56 338.2 271.22 338.93 270.68 338.07 270.3 339.12 270.12 338.57 270.03 339.31 269.48 338.77 269.47 338.83 269.96 337.7 270.19 337.18 270.32L337.93 269.23C337.79 269.54 338.31 269.41 338.48 269.32L338.34 268.94C339.12 269.43 339.5 266.87 340.7 267.14 340.37 267.39 340.34 267.86 339.87 267.66 339.52 268.38 340.46 268.03 340.43 268.5 341.52 267.92 342.37 266.24 343.74 265.81 343.38 265.81 342.99 266.22 342.69 265.99 343.21 265.18 344.61 264.99 345.61 264.43L345.14 264.23C346.08 263.87 345.27 263.85 346.08 263.23 346.08 263.3 346.08 263.52 346.28 263.35 346.83 262.76 346.06 263.02 346.35 262.56 346.94 262.46 346.96 262.3 346.96 262.08 337.008 269.668 322.789 267.751 315.201 257.799 313.64 255.751 312.439 253.452 311.65 251ZM344.76 263.8C345.16 264.04 344.26 264.68 344.12 264.98 343.87 264.46 344.86 264.54 344.76 263.83Z" opacity="0.2"/><path d="M361.24 224C361.301 223.904 361.348 223.799 361.38 223.69 361.26 223.84 361.23 223.93 361.24 224Z" opacity="0.2"/><path d="M361.46 224.14C361.591 224.136 361.716 224.082 361.81 223.99 361.681 224.006 361.56 224.058 361.46 224.14Z" opacity="0.2"/><path d="M361.46 224.14C361.34 224.14 361.26 224.14 361.24 224.01 360.51 225.079 359.657 226.059 358.7 226.93 358.52 227.4 359.7 226.67 360.05 226.49 358.82 226.09 361.13 225.49 361.5 224.55 361.25 224.64 360.83 225.1 360.6 225.09 360.815 224.715 361.108 224.391 361.46 224.14Z" opacity="0.2"/><path d="M328.52 283C328.154 283.003 327.789 283.04 327.43 283.11L327.43 283.11 327.43 283.11C327.581 283.399 327.937 283.511 328.226 283.36 328.369 283.285 328.475 283.155 328.52 283Z" opacity="0.2"/><path d="M359.26 224.6 360.88 223.04C360.47 222.65 360.21 223.68 359.73 223.77 359.8 223.24 360.43 222.77 360.96 222.33 360.158 221.306 359.303 220.325 358.4 219.39L364.1 211.54 357.24 206.54C356.65 207.1 355.97 207.87 355.24 208.45L355.45 208.64 354.67 209.19 355.03 209.1C354.36 209.74 353.24 210.19 352.65 211.1 353.07 210.55 353.51 210.75 353.6 210.94L351.26 212.58C351.35 212.77 350.52 213.69 351.26 213.24L350.26 213.78 350.48 213.88C347.66 217.29 343.81 218.81 341.41 222.61L341.52 222.61 341.12 222.88C345.776 224.626 349.731 227.851 352.38 232.06 353.475 231.351 354.481 230.515 355.38 229.57 355.15 229.57 354.74 229.93 354.63 229.93 355.82 228.93 357.92 228.21 358.2 227 357.52 227.34 356.72 227.76 355.99 228.16 355.887 228.273 355.75 228.351 355.6 228.38 355.14 228.64 354.71 228.88 354.39 229.08 354.98 228.27 355.27 228.44 355.6 228.38L355.99 228.16C356.199 227.946 356.371 227.7 356.5 227.43L355.89 227.61C357.14 226.22 357.37 227.08 358.37 226.61L358.88 225.5C359.621 224.539 360.501 223.693 361.49 222.99L361.26 222.71C360.66 223.36 359.9 224.37 359.26 224.6Z" opacity="0.2"/><path d="M339.57 271.18 339.37 271.35C339.451 271.312 339.52 271.253 339.57 271.18Z" opacity="0.2"/><path d="M339 271.42C339.17 271.64 339.19 271.54 339.39 271.35 339.09 271.49 338.81 271.16 338.59 271.72 338.74 271.7 338.8 271.44 339 271.42Z" opacity="0.2"/><path d="M340.48 269.93C340.3 269.27 339.48 270.21 339.23 270.67 339.49 270.61 340 269.66 340.48 269.93Z" opacity="0.2"/><path d="M339.34 269.48 339.39 269.83 339.7 269.44 339.34 269.48Z" opacity="0.2"/><path d="M342.75 266.2 343.26 265.93 343.25 265.86 342.75 266.13 342.75 266.2Z" opacity="0.2"/><path d="M342.37 270.06C341.88 269.72 342.17 270.55 341.57 270.72 341.77 270.92 342.25 270.51 342.52 270.51 342.67 270.28 342.24 270.36 342.05 270.31 342.133 270.2 342.243 270.114 342.37 270.06Z" opacity="0.2"/><path d="M341.05 272 340.87 272.16C340.949 272.132 341.013 272.075 341.05 272Z" opacity="0.2"/><path d="M341.05 272 341.35 271.75C341.13 271.59 341.15 271.82 341.05 272Z" opacity="0.2"/><path d="M337.86 216.69 338.27 216.23C337.83 216.88 339.27 215.87 338.55 216.8 338.26 217.17 339.3 216.44 339.6 215.97 339.38 215.87 338.68 216.7 338.74 216.24L339.03 215.87C338.6 216.43 338.34 215.76 337.86 216.69Z" opacity="0.2"/><path d="M360.58 251.54C360.33 251.68 360.24 251.65 360.12 252.1 360.37 252 360.6 251.68 360.58 251.54Z" opacity="0.2"/><path d="M353.74 256C353.66 256 353.11 256.64 352.91 256.45L353.06 256.9C353.28 256.55 353.81 256.5 353.74 256.68 353.78 256.25 354.12 256.15 353.74 256Z" opacity="0.2"/><path d="M357.33 252C357.11 252.34 356.33 252.39 356.55 252.87L357.29 252.4C357.27 252.17 357.61 252.07 357.33 252Z" opacity="0.2"/><path d="M368.53 244.13C368.532 242.379 368.402 240.631 368.14 238.9L377.37 235.9 373.73 224.7 364.48 227.7C363.95 226.7 363.37 225.76 362.76 224.82 362.469 225.18 362.104 225.473 361.69 225.68 361.69 225.86 362.09 225.4 361.92 225.78 359.92 227.71 356.6 230.26 354.48 232.85 354.18 232.7 353.72 232.93 353.17 233.33 357.231 240.788 356.779 249.891 352 256.91 352.197 256.813 352.411 256.755 352.63 256.74 352.39 255.57 354.34 254.74 353.81 254.2 353.81 254.27 354.19 254.3 354.33 254L354 254C354.41 253.09 355.14 253.84 355.43 253.31 355.32 253.22 355.16 253.31 354.97 253.25 355.73 252.25 357.02 252.53 357.58 251.32 357.48 251.32 357.39 251.27 357.32 251.38 357.25 251.49 357.38 251.2 357.81 251.04L357.7 251.56C358.8 251.73 358.7 250.05 359.57 249.49 359.38 249.49 358.83 249.97 358.95 249.49 359.42 249.01 360.05 249.74 360.29 248.84 359.96 249.02 359.72 248.63 359.41 248.84 359.337 248.936 359.253 249.024 359.16 249.1 359.222 248.995 359.307 248.906 359.41 248.84 359.74 248.43 359.81 247.98 360.19 248.09 360.267 247.99 360.267 247.85 360.19 247.75 360.131 247.765 360.069 247.765 360.01 247.75 360.01 247.67 360.12 247.69 360.19 247.75 360.62 247.75 360.86 247.19 361.05 246.89L360.87 246.83C361.97 247.01 361.66 246.1 362.31 245.53L362.03 245.45C362.36 245.27 362.97 245.1 363.14 244.4L362.69 244.4C363.2 244.2 363.52 243.2 364.15 243.24 364.22 243.05 363.42 243.17 363.97 242.57 364.24 242.57 364.83 242.27 364.78 241.91 364.68 241.81 364.49 241.76 364.44 242.02 364.36 242.13 364.44 242.09 364.54 242.12L364.18 242.12C364.46 241.52 364.7 241.92 365.06 241.35 365.06 241.13 364.7 241.35 364.52 241.26L366.66 239.88C366.86 240 366.72 240.31 367.08 240.34L366.54 241.01C366.54 241.56 367.17 241.01 367.54 240.8L367.15 241.24C367.177 241.268 367.221 241.268 367.249 241.241 367.249 241.241 367.25 241.24 367.25 241.24L366.93 241.54C368.12 241.05 366.57 242.88 367.74 242.25 367.46 242.44 367.128 242.538 366.79 242.53 366.3 242.87 366.58 242.94 366.52 243.2L367.37 242.83C366.32 243.69 367.75 243.01 367.24 243.89 366.24 244.5 366.59 245.76 366.24 246.2 365.36 246.97 366.24 245.58 365.59 245.94 365.1 246.35 365.59 246.34 365.32 246.69L364.77 246.53C364.2 246.99 365.08 246.89 364.66 247.05 364.47 247.68 364.93 247.05 365.31 247.23 365.13 247.23 364.55 247.56 364.5 247.89 364.6 247.99 365.16 247.46 364.85 247.89 363.39 248.98 363.48 249.7 362.29 250.79L362.57 250.87C362.4 250.96 362.22 250.98 362.16 251.17L362.34 251.17C361.536 251.733 360.783 252.365 360.09 253.06L360.69 252.89 359.76 253.32 360.16 253.56C359.61 253.48 359.02 254.47 358.29 255.02L358.5 255.21 357.99 255.48 358.26 255.48C357.87 255.85 357.08 255.96 356.8 256.57 357.02 256.22 357.41 256.47 357.52 256.64L356.02 257.45C356.13 257.61 355.67 258.17 356.18 257.97L355.49 258.18 355.69 258.31C354.18 260.41 351.46 260.8 350.36 263.31L350.45 263.31 349.02 263.99C348.87 264.23 349.1 264.56 348.88 264.99 348.73 264.54 348.24 265.56 347.79 265.5 347.66 265.88 347.99 265.7 348.18 265.75 347.46 267.06 346.18 267.37 345.26 268.69 345.627 267.854 346.094 267.065 346.65 266.34 345.58 267.07 345.73 267.52 344.65 268.39L345.24 268.07C345.18 269.02 343.52 269.3 343.87 269.95 343.23 270.45 342.24 270.44 341.63 271.23L342.36 271.37 341.73 272.01 341.42 271.72C341.2 271.91 341.15 272.07 341.2 272.17 341.356 272.146 341.514 272.146 341.67 272.17 341.45 272.29 341.26 272.26 341.2 272.17 340.43 272.26 340.01 273.06 339.14 273.4L339.23 273.61C339.33 273.61 339.41 273.61 339.23 273.78L339.23 273.61C339.15 273.618 339.07 273.618 338.99 273.61 339.14 273.99 338.56 274.37 338.78 274.61 339.03 274.47 339.61 274.16 339.41 274.04 340.2 273.85 338.98 274.8 338.67 275.12 338.87 274.64 338.39 275.05 338.14 275.18 338.14 275.25 338.23 275.18 338.32 275.24 337.89 276 336.92 275.45 337.04 276.38L336.66 276.2 336.39 276.88C335.79 276.36 335.67 277.49 335.07 277.05 334.52 277.58 335.46 277.3 335.21 277.43 334.82 278.05 333.43 278.43 333.52 278.86L333.61 278.86 333.61 279.08C333.55 279.036 333.508 278.972 333.49 278.9 332.86 279.15 332.49 279.74 332.03 280L332.24 280.27C331.96 280.366 331.706 280.527 331.5 280.74 331.555 280.762 331.615 280.762 331.67 280.74L332.01 280.51C331.939 280.636 331.813 280.721 331.67 280.74 330.925 281.26 330.229 281.845 329.59 282.49 329.79 282.62 329.89 282.72 330.3 282.42 329.96 283.22 328.49 283.62 327.72 284.57L327.9 284.57 327.47 284.75 327.47 285.01C327.484 285.038 327.505 285.062 327.53 285.08L327.47 285.14 327.47 288.44 339.25 288.44 339.25 278.71C342.653 278.132 345.952 277.054 349.04 275.51L354.74 283.35 364.27 276.43 358.55 268.55C360.948 266.079 362.97 263.269 364.55 260.21L373.77 263.21 377.42 252.01 368.16 249.01C368.396 247.394 368.519 245.763 368.53 244.13ZM357.86 250.56C358.3 249.87 358.01 250.4 358.66 249.9Z" opacity="0.2"/><path d="M298 244.13C297.998 245.881 298.128 247.629 298.39 249.36L289.16 252.36 291.99 261.06C292.831 260.296 293.546 259.406 294.11 258.42L292.57 259.33C293.28 258.5 294.94 257.5 294.41 257.11 293.68 258.11 293.77 257.47 293.25 257.84L293.25 257.93C293.12 258.02 292.73 258.29 292.88 258.02 293.911 257.427 294.897 256.758 295.83 256.02 295.4 256.24 295.94 255.41 295.96 255.26 296.76 254.61 296.17 255.45 296.26 255.64 296.66 255.27 297.54 254.91 297.62 254.35 297.95 253.61 296.73 254.8 296.38 254.79L298.8 253 298.68 253C299.003 252.864 299.281 252.638 299.48 252.35 299.48 251.98 299 252.44 298.71 252.81 299.6 251.43 301.23 251.36 301.71 249.9L301.33 250.14C301.48 249.95 301.6 249.87 301.72 249.86L301.72 249.86 302.49 249.37C302.49 249.28 302.49 249.09 302.41 249.18L303.17 248.73C304.49 247.73 303.17 248.07 303.45 247.6L303.39 247.66C303.69 247.25 303.81 246.84 303.52 247.05L304.95 246.05 304.95 246.05C304.79 246.05 304.67 246.05 304.63 245.95L304.95 246.05C305.72 245.87 307.57 244.15 308.08 244.71 308.37 244.34 308.52 243.99 308.3 244.05L308.24 244.11C308.097 244.265 307.935 244.403 307.76 244.52L308.24 244.11C308.24 244.11 308.24 244.11 308.29 244.05L308.29 244.05C309.23 243.19 307.67 243.86 309.2 242.48 309.1 242.38 308.96 242.57 308.7 242.75 309.07 242.36 309.26 242.24 309.38 242.23 309.303 242.146 309.267 242.033 309.28 241.92 309.49 242.11 310.05 241.46 310.34 241.09L309.49 241.27C310.018 241.077 310.475 240.729 310.8 240.27L310.19 240.44C310.7 240.01 310.84 240.08 310.97 240.12 312.733 230.341 320.658 222.85 330.52 221.64 330.758 221.45 330.918 221.18 330.97 220.88 331.18 220.97 330.97 221.28 330.66 221.63 330.86 221.63 331.06 221.61 331.26 221.57L331.11 221.57C332.52 220.75 331.43 221.01 332.75 219.91 332.75 220 332.7 220.29 332.98 220.01 333.98 219.01 332.79 219.63 333.36 218.89 335.11 218.17 333.61 217.96 335.43 216.68L335.2 216.68C336.63 215.68 337.73 213.68 338.97 212.26 338.97 212.44 337.89 213.35 338.33 213.55L340 212C340 211.82 340.71 211.08 340.09 211.35 339.87 211.532 339.681 211.748 339.53 211.99L339.59 211.61C341.3 210.25 339.98 212.19 340.29 212.47 341 211.55 341.59 211.56 342.14 211.01 342.14 210.44 340.74 211.74 341.14 210.71 341.321 210.423 341.547 210.166 341.81 209.95 340.89 209.73 339.97 209.53 339.03 209.37L339.03 199.67 327.27 199.67 327.27 209.4C323.867 209.978 320.568 211.056 317.48 212.6L311.78 204.75 302.25 211.68 308 219.5C305.604 221.973 303.583 224.783 302 227.84L292.78 224.84 289.13 236.04 298.39 239.04C298.137 240.725 298.007 242.426 298 244.13ZM292.25 259.13 291.42 259.21C292 258.74 292.33 259 292.2 259.12ZM294.51 256.36 294 256.63 295.33 255.54ZM297.72 253.52 297.72 253.33 298.64 252.6Z" opacity="0.2"/><path d="M350.58 261.78C350.38 261.65 350 262.16 349.95 261.78L350.1 261.55C349.88 261.89 349.54 261.32 349.35 261.95L349.58 261.67C349.37 262.09 350.29 261.6 349.92 262.18 349.77 262.44 350.44 262.08 350.58 261.78Z" opacity="0.2"/><path d="M361.69 247.75 361.78 247.75C361.783 247.656 361.807 247.564 361.85 247.48 361.75 247.52 361.66 247.57 361.69 247.75Z" opacity="0.2"/><path d="M364.85 245.29 365.1 245.16C365.23 244.78 364.8 244.94 364.56 245.16 364.66 245.17 364.67 245.31 364.85 245.29Z" opacity="0.2"/><path d="M360.7 251.78C361.11 251.49 361.44 251.92 361.63 251.36 361.31 251.61 361 251.11 360.7 251.78Z" opacity="0.2"/><path d="M361.16 247.12C361.38 247.12 361.91 246.86 362.05 247.12 362.33 246.66 362.62 246.19 361.94 246.3L361.64 246.7C361.8 246.53 361.81 246.61 361.9 246.63 361.77 247 361.41 247 361.16 247.12Z" opacity="0.2"/><path d="M362.08 247.38C362.114 247.3 362.114 247.21 362.08 247.13L361.88 247.5C362 247.48 362.05 247.47 362.08 247.38Z" opacity="0.2"/><path d="M350 262.71C349.4 262.6 349.64 263.08 349.2 263.23 349.48 263.19 350 263.3 350 262.71Z" opacity="0.2"/><path d="M355 205.08C354.994 205.047 354.994 205.013 355 204.98L354.81 204.84C354.32 205.23 353.66 205.55 353.81 205.99Z" opacity="0.2"/><path d="M299.12 260.62 299.2 260.62 300.72 259.25 299.12 260.62Z" opacity="0.2"/><path d="M298 261.82 299 261.09C298.333 261.196 297.731 261.554 297.32 262.09L298.24 261.79 298.59 261.58Z" opacity="0.2"/><path d="M340.33 222.6 340.49 222.65C340.916 222.549 341.249 222.216 341.35 221.79 340.7 221.84 340.7 222.25 340.33 222.6Z" opacity="0.2"/><path d="M342.49 220.3C342.27 220.21 341.57 221.03 341.63 220.57L341.92 220.2C341.49 220.76 341.23 220.1 340.75 221.02L341.16 220.57C340.72 221.21 342.16 220.2 341.44 221.13 341.15 221.5 342.19 220.77 342.49 220.3Z" opacity="0.2"/><path d="M304.39 258.19C304.516 258.076 304.621 257.941 304.7 257.79Z" opacity="0.2"/><path d="M304.76 257.17C303.952 257.354 303.188 257.693 302.51 258.17L302.56 258.64C302.85 258.27 302.51 258.17 303.28 257.71 303.35 258 304 258.19 304.76 257.17Z" opacity="0.2"/><path d="M354.57 204.61 354.23 205.08C354.4 204.969 354.563 204.849 354.72 204.72Z" opacity="0.2"/><path d="M304.7 257.79 305.7 256.53C304.69 256.74 305 257.22 304.7 257.79Z" opacity="0.2"/><path d="M347.94 212.07C347.79 212.16 347.67 212.21 347.61 212.15L347.61 212.72C347.773 212.512 347.973 212.336 348.2 212.2Z" opacity="0.2"/><path d="M345.12 214.92C345.12 214.64 345.83 214 346.39 213.35 345.8 213.34 344.89 214.82 345.12 214.92Z" opacity="0.2"/><path d="M299.58 260.64 299.2 260.62 299.1 260.72 299.58 260.64Z" opacity="0.2"/></g></svg>